<svg width="180" height="180" viewBox="0 0 180 180" fill="none" xmlns="http://www.w3.org/2000/svg">
<path fill-rule="evenodd" clip-rule="evenodd" d="M0 90C0 40.2944 40.2944 0 90 0C139.706 0 180 40.2944 180 90C180 139.706 139.706 180 90 180C40.2944 180 0 139.706 0 90ZM20.7089 100C25.5612 133.923 54.7353 160 90 160C125.265 160 154.439 133.923 159.291 100H118.293C114.174 111.652 103.062 120 90 120C76.938 120 65.8251 111.652 61.7068 100H20.7089ZM159.291 80C154.439 46.0771 125.265 20 90 20C54.7353 20 25.5612 46.0771 20.7089 80H61.7068C65.8251 68.3481 76.938 60 90 60C103.062 60 114.174 68.3481 118.293 80H159.291ZM90 100C95.523 100 100 95.523 100 90C100 84.477 95.523 80 90 80C84.477 80 80 84.477 80 90C80 95.523 84.477 100 90 100Z" fill="#FFF"/>
</svg>
