<svg width="31" height="31" viewBox="0 0 31 31" fill="none" xmlns="http://www.w3.org/2000/svg">
<path fill-rule="evenodd" clip-rule="evenodd" d="M15.9537 30.4562C23.5875 30.4562 29.9029 24.8685 30.9536 17.5995H21.1506C20.3023 19.6127 18.295 21.0276 15.9538 21.0276C13.6126 21.0276 11.6053 19.6127 10.757 17.5995H0.953855C2.00449 24.8685 8.31989 30.4562 15.9537 30.4562ZM21.151 13.3138H30.9537C29.9035 6.04438 23.5879 0.456177 15.9537 0.456177C8.31954 0.456177 2.0039 6.04438 0.953708 13.3138H10.7566C11.6046 11.3002 13.6122 9.88478 15.9538 9.88478C18.2953 9.88478 20.3029 11.3002 21.151 13.3138ZM0.800323 15.4562L0.800335 15.4374V15.4749L0.800323 15.4562ZM15.8938 18.7114C17.7185 18.7114 19.1977 17.2471 19.1977 15.4409C19.1977 13.6346 17.7185 12.1704 15.8938 12.1704C14.069 12.1704 12.5898 13.6346 12.5898 15.4409C12.5898 17.2471 14.069 18.7114 15.8938 18.7114Z" fill="white"/>
</svg>
