<svg width="333" height="108" viewBox="0 0 333 108" fill="none" xmlns="http://www.w3.org/2000/svg">
<g id="Group 1">
<path id="pokedex" fill-rule="evenodd" clip-rule="evenodd" d="M0 18.9531C0 8.48563 8.48561 0 18.9531 0C24.5851 0 29.5196 2.98636 32.2595 7.46196V19.4457C33.3652 20.0816 34.3813 21.0305 35.241 22.2528C36.9244 24.6465 37.8701 27.893 37.8701 31.2781C37.8701 34.6632 36.9244 37.9097 35.241 40.3033C34.3813 41.5257 33.3652 42.4745 32.2595 43.1104V99.7908L21.6968 108L0 94.5746V18.9531ZM10.94 75.0391C10.94 76.8208 9.49566 78.2651 7.714 78.2651C5.93235 78.2651 4.48803 76.8208 4.48803 75.0391C4.48803 73.2575 5.93235 71.8131 7.714 71.8131C9.49566 71.8131 10.94 73.2575 10.94 75.0391ZM6.31178 81.0699C5.61461 81.0699 5.04944 81.635 5.04944 82.3322C5.04944 83.0294 5.61461 83.5945 6.31178 83.5945H9.11697C9.81414 83.5945 10.3793 83.0294 10.3793 82.3322C10.3793 81.635 9.81414 81.0699 9.11697 81.0699H6.31178ZM5.04944 87.1018C5.04944 86.4047 5.61461 85.8395 6.31178 85.8395H9.11697C9.81414 85.8395 10.3793 86.4047 10.3793 87.1018C10.3793 87.799 9.81414 88.3642 9.11697 88.3642H6.31178C5.61461 88.3642 5.04944 87.799 5.04944 87.1018ZM17.6727 12.6232C17.053 12.6232 16.5506 13.1256 16.5506 13.7453V21.5999H18.7948V13.7453C18.7948 13.1256 18.2924 12.6232 17.6727 12.6232ZM27.3913 32.8209C26.7136 37.558 22.6545 41.2042 17.7375 41.2361H18.7948V50.7737H16.5506V41.2361H17.6078C12.6907 41.2042 8.6316 37.558 7.9539 32.8209H14.3055C14.8551 34.1386 16.1557 35.0648 17.6727 35.0648C19.1896 35.0648 20.4902 34.1386 21.0398 32.8209H27.3913ZM17.6726 21.5999C22.6189 21.5999 26.7109 25.2576 27.3914 30.0157H21.04C20.4905 28.6977 19.1898 27.7713 17.6727 27.7713C16.1555 27.7713 14.8548 28.6977 14.3053 30.0157H7.95383C8.63432 25.2576 12.7263 21.5999 17.6726 21.5999Z" fill="#4E4E4E"/>
<path id="pokedex-text" d="M102.82 46.44C102.82 48.88 102.26 51.12 101.14 53.16C100.02 55.16 98.3 56.78 95.98 58.02C93.66 59.26 90.78 59.88 87.34 59.88H80.98V75H70.72V32.88H87.34C90.7 32.88 93.54 33.46 95.86 34.62C98.18 35.78 99.92 37.38 101.08 39.42C102.24 41.46 102.82 43.8 102.82 46.44ZM86.56 51.72C88.52 51.72 89.98 51.26 90.94 50.34C91.9 49.42 92.38 48.12 92.38 46.44C92.38 44.76 91.9 43.46 90.94 42.54C89.98 41.62 88.52 41.16 86.56 41.16H80.98V51.72H86.56ZM123.401 75.48C120.121 75.48 117.161 74.78 114.521 73.38C111.921 71.98 109.861 69.98 108.341 67.38C106.861 64.78 106.121 61.74 106.121 58.26C106.121 54.82 106.881 51.8 108.401 49.2C109.921 46.56 112.001 44.54 114.641 43.14C117.281 41.74 120.241 41.04 123.521 41.04C126.801 41.04 129.761 41.74 132.401 43.14C135.041 44.54 137.121 46.56 138.641 49.2C140.161 51.8 140.921 54.82 140.921 58.26C140.921 61.7 140.141 64.74 138.581 67.38C137.061 69.98 134.961 71.98 132.281 73.38C129.641 74.78 126.681 75.48 123.401 75.48ZM123.401 66.6C125.361 66.6 127.021 65.88 128.381 64.44C129.781 63 130.481 60.94 130.481 58.26C130.481 55.58 129.801 53.52 128.441 52.08C127.121 50.64 125.481 49.92 123.521 49.92C121.521 49.92 119.861 50.64 118.541 52.08C117.221 53.48 116.561 55.54 116.561 58.26C116.561 60.94 117.201 63 118.481 64.44C119.801 65.88 121.441 66.6 123.401 66.6ZM166.825 75L156.625 60.96V75H146.365V30.6H156.625V55.14L166.765 41.52H179.425L165.505 58.32L179.545 75H166.825ZM215.014 57.72C215.014 58.68 214.954 59.68 214.834 60.72H191.614C191.774 62.8 192.434 64.4 193.594 65.52C194.794 66.6 196.254 67.14 197.974 67.14C200.534 67.14 202.314 66.06 203.314 63.9H214.234C213.674 66.1 212.654 68.08 211.174 69.84C209.734 71.6 207.914 72.98 205.714 73.98C203.514 74.98 201.054 75.48 198.334 75.48C195.054 75.48 192.134 74.78 189.574 73.38C187.014 71.98 185.014 69.98 183.574 67.38C182.134 64.78 181.414 61.74 181.414 58.26C181.414 54.78 182.114 51.74 183.514 49.14C184.954 46.54 186.954 44.54 189.514 43.14C192.074 41.74 195.014 41.04 198.334 41.04C201.574 41.04 204.454 41.72 206.974 43.08C209.494 44.44 211.454 46.38 212.854 48.9C214.294 51.42 215.014 54.36 215.014 57.72ZM204.514 55.02C204.514 53.26 203.914 51.86 202.714 50.82C201.514 49.78 200.014 49.26 198.214 49.26C196.494 49.26 195.034 49.76 193.834 50.76C192.674 51.76 191.954 53.18 191.674 55.02H204.514ZM205.234 32.94L190.774 39V31.92L205.234 24.96V32.94ZM218.147 58.14C218.147 54.66 218.767 51.62 220.007 49.02C221.287 46.42 223.027 44.42 225.227 43.02C227.427 41.62 229.867 40.92 232.547 40.92C234.707 40.92 236.627 41.38 238.307 42.3C240.027 43.18 241.367 44.4 242.327 45.96V30.6H254.147V75H242.327V70.32C241.407 71.88 240.107 73.12 238.427 74.04C236.747 74.96 234.767 75.42 232.487 75.42C229.807 75.42 227.367 74.72 225.167 73.32C223.007 71.92 221.287 69.92 220.007 67.32C218.767 64.68 218.147 61.62 218.147 58.14ZM242.387 58.14C242.387 55.98 241.787 54.28 240.587 53.04C239.427 51.8 237.987 51.18 236.267 51.18C234.507 51.18 233.047 51.8 231.887 53.04C230.727 54.24 230.147 55.94 230.147 58.14C230.147 60.3 230.727 62.02 231.887 63.3C233.047 64.54 234.507 65.16 236.267 65.16C237.987 65.16 239.427 64.54 240.587 63.3C241.787 62.06 242.387 60.34 242.387 58.14ZM293.008 57.78C293.008 58.7 292.948 59.62 292.828 60.54H270.568C270.688 62.38 271.188 63.76 272.068 64.68C272.988 65.56 274.148 66 275.548 66C277.508 66 278.908 65.12 279.748 63.36H292.288C291.768 65.68 290.748 67.76 289.228 69.6C287.748 71.4 285.868 72.82 283.588 73.86C281.308 74.9 278.788 75.42 276.028 75.42C272.708 75.42 269.748 74.72 267.148 73.32C264.588 71.92 262.568 69.92 261.088 67.32C259.648 64.72 258.928 61.66 258.928 58.14C258.928 54.62 259.648 51.58 261.088 49.02C262.528 46.42 264.528 44.42 267.088 43.02C269.688 41.62 272.668 40.92 276.028 40.92C279.348 40.92 282.288 41.6 284.848 42.96C287.408 44.32 289.408 46.28 290.848 48.84C292.288 51.36 293.008 54.34 293.008 57.78ZM281.008 54.84C281.008 53.4 280.528 52.28 279.568 51.48C278.608 50.64 277.408 50.22 275.968 50.22C274.528 50.22 273.348 50.62 272.428 51.42C271.508 52.18 270.908 53.32 270.628 54.84H281.008ZM318.821 75L312.761 66.54L307.961 75H295.061L306.281 57.54L294.581 41.34H307.781L313.841 49.8L318.701 41.34H331.601L320.141 58.5L332.021 75H318.821Z" fill="#4E4E4E"/>
</g>
</svg>
