<svg width="7" height="13" viewBox="0 0 7 13" fill="none" xmlns="http://www.w3.org/2000/svg">
<path d="M5.80732 0H0.270833C0.121279 0 0 0.121252 0 0.270833V12.7292C0 12.8787 0.121279 13 0.270833 13H5.80734C5.9569 13 6.07818 12.8787 6.07818 12.7292V0.270833C6.07815 0.121252 5.95687 0 5.80732 0ZM1.38371 12.4583H0.541666V0.541667H1.38371V12.4583ZM5.53648 1.38434H4.7691C4.61955 1.38434 4.49827 1.50559 4.49827 1.65517C4.49827 1.80475 4.61955 1.926 4.7691 1.926H5.53648V2.76846H4.07726C3.92771 2.76846 3.80643 2.88971 3.80643 3.03929C3.80643 3.18887 3.92771 3.31013 4.07726 3.31013H5.53648V4.1528H4.7691C4.61955 4.1528 4.49827 4.27405 4.49827 4.42363C4.49827 4.57321 4.61955 4.69446 4.7691 4.69446H5.53648V5.53713H4.07726C3.92771 5.53713 3.80643 5.65839 3.80643 5.80797C3.80643 5.95755 3.92771 6.0788 4.07726 6.0788H5.53648V6.92125H4.7691C4.61955 6.92125 4.49827 7.04251 4.49827 7.19209C4.49827 7.34167 4.61955 7.46292 4.7691 7.46292H5.53648V8.30559H4.07726C3.92771 8.30559 3.80643 8.42684 3.80643 8.57643C3.80643 8.72601 3.92771 8.84726 4.07726 8.84726H5.53648V9.6899H4.7691C4.61955 9.6899 4.49827 9.81115 4.49827 9.96074C4.49827 10.1103 4.61955 10.2316 4.7691 10.2316H5.53648V11.074H4.07726C3.92771 11.074 3.80643 11.1953 3.80643 11.3449C3.80643 11.4944 3.92771 11.6157 4.07726 11.6157H5.53648V12.4583H1.92535V0.541667H5.53648V1.38434Z" fill="#525252"/>
</svg>
