<svg width="13" height="13" viewBox="0 0 13 13" fill="none" xmlns="http://www.w3.org/2000/svg">
<path d="M11.9171 0H1.08289C0.485155 0 0 0.485155 0 1.08289V11.9171C0 12.5148 0.485155 13 1.08289 13H11.9171C12.5148 13 13 12.5148 13 11.9171V1.08289C13 0.485155 12.5148 0 11.9171 0ZM12.279 11.9171C12.279 12.1155 12.1181 12.279 11.9171 12.279H6.86186V6.69567C6.86186 6.49732 6.70103 6.33381 6.5 6.33381C6.30165 6.33381 6.13814 6.49464 6.13814 6.69567V12.279H1.08289C0.884536 12.279 0.721031 12.1181 0.721031 11.9171V9.54227H1.4099C1.60825 9.54227 1.77175 9.38144 1.77175 9.18041C1.77175 8.97938 1.61093 8.81856 1.4099 8.81856H0.721031V8.09753H2.13361C2.33196 8.09753 2.49546 7.9367 2.49546 7.73567C2.49546 7.53732 2.33464 7.37381 2.13361 7.37381H0.721031V1.08289C0.721031 0.884536 0.881856 0.721031 1.08289 0.721031H11.9171C12.1155 0.721031 12.279 0.881856 12.279 1.08289V11.9171V11.9171Z" fill="#525252"/>
<path d="M10.2526 2.31589C10.2231 2.22476 10.1561 2.15238 10.0703 2.1095C8.96062 1.5895 7.72495 1.31342 6.5 1.31342C5.27505 1.31342 4.03938 1.5895 2.92969 2.11218C2.84392 2.15238 2.7769 2.22744 2.74474 2.31589C2.71257 2.40702 2.71794 2.5062 2.75814 2.59197L3.87051 4.95878C3.91072 5.04455 3.98577 5.11156 4.07422 5.14372C4.16536 5.17589 4.26453 5.17053 4.35031 5.13032C5.01773 4.81671 5.7334 4.65053 6.5 4.65053C7.23711 4.65053 7.97959 4.81671 8.64701 5.13032C8.69526 5.15445 8.79979 5.18125 8.92309 5.14372C9.01422 5.11424 9.0866 5.04455 9.1268 4.95878L10.2392 2.59197C10.2794 2.5062 10.2847 2.40702 10.2526 2.31589ZM8.62556 4.33424C8.06268 4.11177 7.46495 3.98043 6.86185 3.94022V2.86537C6.86185 2.66702 6.70103 2.50352 6.5 2.50352C6.30165 2.50352 6.13814 2.66434 6.13814 2.86537V3.94022C5.53505 3.97775 4.93732 4.11177 4.37443 4.33424L3.56763 2.61878C4.49237 2.23548 5.5002 2.03445 6.5 2.03445C7.49979 2.03445 8.50495 2.23548 9.43237 2.61878L8.62556 4.33424Z" fill="#525252"/>
</svg>
